<?xml version="1.0" standalone="no"?>
<!DOCTYPE svg PUBLIC "-//W3C//DTD SVG 20010904//EN"
 "http://www.w3.org/TR/2001/REC-SVG-20010904/DTD/svg10.dtd">
<svg version="1.0" xmlns="http://www.w3.org/2000/svg"
 width="260.000000pt" height="260.000000pt" viewBox="0 0 260.000000 260.000000"
 preserveAspectRatio="xMidYMid meet">
<metadata>
Created by potrace 1.11, written by Peter Selinger 2001-2013
</metadata>
<g transform="translate(0.000000,260.000000) scale(0.100000,-0.100000)"
fill="#000000" stroke="none">
<path d="M0 1300 l0 -1300 1300 0 1300 0 0 1300 0 1300 -1300 0 -1300 0 0
-1300z m975 1075 c82 -22 147 -60 204 -119 72 -77 94 -142 99 -296 8 -238 -47
-358 -199 -435 -85 -43 -164 -55 -381 -55 l-198 0 0 -260 0 -260 -155 0 -155
0 0 720 0 720 363 0 c294 0 374 -3 422 -15z m1149 -733 c129 -48 230 -140 291
-265 127 -262 104 -676 -52 -907 -80 -118 -174 -186 -309 -220 -70 -18 -111
-20 -431 -20 l-353 0 0 721 0 720 398 -3 c381 -4 399 -5 456 -26z"/>
<path d="M500 1930 l0 -210 151 0 c174 0 228 11 274 54 72 68 76 234 7 309
-41 44 -105 57 -279 57 l-153 0 0 -210z"/>
<path d="M1570 949 l0 -471 178 4 c170 4 181 5 235 31 90 44 147 125 183 258
24 88 24 307 1 403 -50 202 -127 246 -429 246 l-168 0 0 -471z"/>
</g>
</svg>
